<svg xmlns="http://www.w3.org/2000/svg" xmlns:xlink="http://www.w3.org/1999/xlink" width="500" zoomAndPan="magnify" viewBox="0 0 375 374.999991" height="500" preserveAspectRatio="xMidYMid meet" version="1.0"><defs><g/></defs><path fill="#1657cb" d="M 179.109375 163.195312 L 182.738281 163.195312 L 182.738281 166.824219 L 179.109375 166.824219 Z M 179.109375 167.90625 L 182.738281 167.90625 L 182.738281 171.535156 L 179.109375 171.535156 Z M 173.773438 167.90625 L 177.402344 167.90625 L 177.402344 171.535156 L 173.773438 171.535156 Z M 173.773438 163.195312 L 177.402344 163.195312 L 177.402344 166.824219 L 173.773438 166.824219 Z M 177.773438 144.5625 L 149.5 178.230469 C 149.675781 178.644531 149.863281 179.054688 150.054688 179.460938 L 177.773438 153.445312 L 213.484375 183.054688 C 216.964844 183.796875 220.132812 183.800781 222.839844 183.042969 L 198.257812 162.085938 L 198.257812 155.421875 L 195.34375 155.421875 L 195.34375 159.59375 Z M 177.773438 144.5625 " fill-opacity="1" fill-rule="evenodd"/><path fill="#e12060" d="M 224.265625 164.140625 L 231.871094 172.464844 C 231.710938 173.242188 231.515625 173.980469 231.28125 174.675781 L 222.539062 165.648438 Z M 216.25 155.367188 L 223.179688 162.949219 L 221.421875 164.480469 L 213.339844 156.105469 Z M 205.636719 148.117188 L 210.234375 148.789062 L 215.164062 154.183594 L 212.203125 154.933594 Z M 221.492188 166.566406 L 230.644531 176.304688 C 230.179688 177.320312 229.621094 178.230469 228.980469 179.035156 L 218.703125 169 Z M 211.917969 156.464844 L 220.378906 165.394531 L 217.53125 167.882812 L 206.929688 157.722656 Z M 195.328125 146.613281 L 203.746094 147.839844 L 210.800781 155.28125 L 205.71875 156.5625 Z M 217.65625 169.910156 L 228.066406 180.050781 C 227.117188 180.992188 226.03125 181.742188 224.820312 182.308594 C 221.5625 179.589844 214.800781 173.714844 214.046875 173.058594 Z M 205.503906 158.085938 L 216.496094 168.785156 L 212.820312 171.996094 L 199.753906 160.644531 L 199.753906 159.535156 Z M 181.242188 144.5625 L 193.441406 146.335938 L 204.3125 156.917969 L 199.753906 158.070312 L 199.753906 153.878906 L 193.777344 153.878906 L 193.777344 155.453125 Z M 181.242188 144.5625 " fill-opacity="1" fill-rule="evenodd"/><path fill="#ffbd59" d="M 179.03125 142.085938 L 176.238281 132.695312 L 174.078125 143.953125 C 173.097656 144.101562 172.128906 144.332031 171.171875 144.636719 L 164.046875 136.429688 L 166.503906 146.808594 C 165.421875 147.484375 164.382812 148.253906 163.417969 149.113281 L 154.1875 144.773438 L 160.042969 152.808594 C 159.199219 153.953125 158.449219 155.183594 157.820312 156.472656 L 148.773438 156.851562 L 156.25 160.738281 C 156.066406 161.453125 155.917969 162.179688 155.804688 162.917969 C 155.675781 163.785156 155.605469 164.632812 155.582031 165.464844 L 147.257812 168.28125 L 154.570312 169.390625 L 155.6875 168 L 177.488281 141.839844 Z M 187.355469 143.375 L 188.589844 135.078125 L 183.761719 142.824219 Z M 196.492188 144.789062 L 199.691406 141.09375 L 194.207031 144.433594 Z M 196.492188 144.789062 " fill-opacity="1" fill-rule="evenodd"/><path fill="#1657cb" d="M 171.523438 207.035156 C 146.664062 198.171875 133.710938 170.804688 142.582031 145.898438 C 151.457031 121 178.804688 107.996094 203.660156 116.851562 C 228.34375 125.648438 241.289062 152.699219 232.777344 177.460938 C 238.652344 154.003906 224.503906 129.085938 202.136719 121.117188 C 179.632812 113.101562 154.949219 124.675781 147 146.976562 C 140.453125 165.34375 147.3125 185.265625 162.515625 196.195312 C 173.121094 201.953125 181.574219 202.121094 188.359375 197.96875 C 184.273438 198.238281 180.210938 198.355469 176.304688 197.34375 C 162.976562 193.890625 159.980469 178.453125 174.070312 174.390625 C 179.492188 172.828125 191.039062 176.761719 200.042969 180.242188 C 212.53125 185.074219 218.054688 188.183594 231.496094 180.78125 L 231.488281 180.789062 C 221.628906 203.851562 195.425781 215.554688 171.523438 207.035156 " fill-opacity="1" fill-rule="evenodd"/></svg>