<svg xmlns="http://www.w3.org/2000/svg" xmlns:xlink="http://www.w3.org/1999/xlink" width="500" zoomAndPan="magnify" viewBox="0 0 375 374.999991" height="500" preserveAspectRatio="xMidYMid meet" version="1.0"><defs><g/></defs><path fill="#000000" d="M 179.109375 163.195312 L 182.738281 163.195312 L 182.738281 166.824219 L 179.109375 166.824219 Z M 179.109375 167.90625 L 182.738281 167.90625 L 182.738281 171.535156 L 179.109375 171.535156 Z M 173.773438 167.90625 L 177.402344 167.90625 L 177.402344 171.535156 L 173.773438 171.535156 Z M 173.773438 163.195312 L 177.402344 163.195312 L 177.402344 166.824219 L 173.773438 166.824219 Z M 177.773438 144.5625 L 149.5 178.230469 C 149.675781 178.644531 149.863281 179.054688 150.054688 179.460938 L 177.773438 153.445312 L 213.484375 183.054688 C 216.964844 183.796875 220.132812 183.800781 222.839844 183.042969 L 198.257812 162.085938 L 198.257812 155.421875 L 195.34375 155.421875 L 195.34375 159.59375 Z M 177.773438 144.5625 " fill-opacity="1" fill-rule="evenodd"/><path fill="#004aad" d="M 224.265625 164.140625 L 231.871094 172.464844 C 231.710938 173.242188 231.515625 173.980469 231.28125 174.675781 L 222.539062 165.648438 Z M 216.25 155.367188 L 223.179688 162.949219 L 221.421875 164.480469 L 213.339844 156.105469 Z M 205.636719 148.117188 L 210.234375 148.789062 L 215.164062 154.183594 L 212.203125 154.933594 Z M 221.492188 166.566406 L 230.644531 176.304688 C 230.179688 177.320312 229.621094 178.230469 228.980469 179.035156 L 218.703125 169 Z M 211.917969 156.464844 L 220.378906 165.394531 L 217.53125 167.882812 L 206.929688 157.722656 Z M 195.328125 146.613281 L 203.746094 147.839844 L 210.800781 155.28125 L 205.71875 156.5625 Z M 217.65625 169.910156 L 228.066406 180.050781 C 227.117188 180.992188 226.03125 181.742188 224.820312 182.308594 C 221.5625 179.589844 214.800781 173.714844 214.046875 173.058594 Z M 205.503906 158.085938 L 216.496094 168.785156 L 212.820312 171.996094 L 199.753906 160.644531 L 199.753906 159.535156 Z M 181.242188 144.5625 L 193.441406 146.335938 L 204.3125 156.917969 L 199.753906 158.070312 L 199.753906 153.878906 L 193.777344 153.878906 L 193.777344 155.453125 Z M 181.242188 144.5625 " fill-opacity="1" fill-rule="evenodd"/><path fill="#ffbd59" d="M 179.03125 142.085938 L 176.238281 132.695312 L 174.078125 143.953125 C 173.097656 144.101562 172.128906 144.332031 171.171875 144.636719 L 164.046875 136.429688 L 166.503906 146.808594 C 165.421875 147.484375 164.382812 148.253906 163.417969 149.113281 L 154.1875 144.773438 L 160.042969 152.808594 C 159.199219 153.953125 158.449219 155.183594 157.820312 156.472656 L 148.773438 156.851562 L 156.25 160.738281 C 156.066406 161.453125 155.917969 162.179688 155.804688 162.917969 C 155.675781 163.785156 155.605469 164.632812 155.582031 165.464844 L 147.257812 168.28125 L 154.570312 169.390625 L 155.6875 168 L 177.488281 141.839844 Z M 187.355469 143.375 L 188.589844 135.078125 L 183.761719 142.824219 Z M 196.492188 144.789062 L 199.691406 141.09375 L 194.207031 144.433594 Z M 196.492188 144.789062 " fill-opacity="1" fill-rule="evenodd"/><path fill="#000000" d="M 171.523438 207.035156 C 146.664062 198.171875 133.710938 170.804688 142.582031 145.898438 C 151.457031 121 178.804688 107.996094 203.660156 116.851562 C 228.34375 125.648438 241.289062 152.699219 232.777344 177.460938 C 238.652344 154.003906 224.503906 129.085938 202.136719 121.117188 C 179.632812 113.101562 154.949219 124.675781 147 146.976562 C 140.453125 165.34375 147.3125 185.265625 162.515625 196.195312 C 173.121094 201.953125 181.574219 202.121094 188.359375 197.96875 C 184.273438 198.238281 180.210938 198.355469 176.304688 197.34375 C 162.976562 193.890625 159.980469 178.453125 174.070312 174.390625 C 179.492188 172.828125 191.039062 176.761719 200.042969 180.242188 C 212.53125 185.074219 218.054688 188.183594 231.496094 180.78125 L 231.488281 180.789062 C 221.628906 203.851562 195.425781 215.554688 171.523438 207.035156 " fill-opacity="1" fill-rule="evenodd"/><g fill="#000000" fill-opacity="1"><g transform="translate(86.964843, 246.185842)"><g><path d="M 20.4375 -8.140625 C 20.4375 -6.484375 20.015625 -5.007812 19.171875 -3.71875 C 18.328125 -2.425781 17.109375 -1.421875 15.515625 -0.703125 C 13.929688 0.00390625 12.066406 0.359375 9.921875 0.359375 C 8.140625 0.359375 6.640625 0.234375 5.421875 -0.015625 C 4.210938 -0.265625 2.957031 -0.703125 1.65625 -1.328125 L 1.65625 -7.78125 C 3.03125 -7.070312 4.460938 -6.515625 5.953125 -6.109375 C 7.453125 -5.710938 8.828125 -5.515625 10.078125 -5.515625 C 11.148438 -5.515625 11.9375 -5.703125 12.4375 -6.078125 C 12.9375 -6.453125 13.1875 -6.929688 13.1875 -7.515625 C 13.1875 -7.890625 13.085938 -8.210938 12.890625 -8.484375 C 12.691406 -8.765625 12.367188 -9.046875 11.921875 -9.328125 C 11.472656 -9.609375 10.28125 -10.179688 8.34375 -11.046875 C 6.59375 -11.835938 5.28125 -12.609375 4.40625 -13.359375 C 3.53125 -14.109375 2.878906 -14.960938 2.453125 -15.921875 C 2.035156 -16.890625 1.828125 -18.035156 1.828125 -19.359375 C 1.828125 -21.828125 2.726562 -23.753906 4.53125 -25.140625 C 6.332031 -26.523438 8.800781 -27.21875 11.9375 -27.21875 C 14.71875 -27.21875 17.550781 -26.570312 20.4375 -25.28125 L 18.21875 -19.6875 C 15.707031 -20.832031 13.539062 -21.40625 11.71875 -21.40625 C 10.78125 -21.40625 10.097656 -21.238281 9.671875 -20.90625 C 9.242188 -20.582031 9.03125 -20.175781 9.03125 -19.6875 C 9.03125 -19.164062 9.300781 -18.695312 9.84375 -18.28125 C 10.382812 -17.863281 11.863281 -17.101562 14.28125 -16 C 16.59375 -14.957031 18.195312 -13.835938 19.09375 -12.640625 C 19.988281 -11.453125 20.4375 -9.953125 20.4375 -8.140625 Z M 20.4375 -8.140625 "/></g></g></g><g fill="#000000" fill-opacity="1"><g transform="translate(108.655251, 246.185842)"><g><path d="M 20.4375 -8.140625 C 20.4375 -6.484375 20.015625 -5.007812 19.171875 -3.71875 C 18.328125 -2.425781 17.109375 -1.421875 15.515625 -0.703125 C 13.929688 0.00390625 12.066406 0.359375 9.921875 0.359375 C 8.140625 0.359375 6.640625 0.234375 5.421875 -0.015625 C 4.210938 -0.265625 2.957031 -0.703125 1.65625 -1.328125 L 1.65625 -7.78125 C 3.03125 -7.070312 4.460938 -6.515625 5.953125 -6.109375 C 7.453125 -5.710938 8.828125 -5.515625 10.078125 -5.515625 C 11.148438 -5.515625 11.9375 -5.703125 12.4375 -6.078125 C 12.9375 -6.453125 13.1875 -6.929688 13.1875 -7.515625 C 13.1875 -7.890625 13.085938 -8.210938 12.890625 -8.484375 C 12.691406 -8.765625 12.367188 -9.046875 11.921875 -9.328125 C 11.472656 -9.609375 10.28125 -10.179688 8.34375 -11.046875 C 6.59375 -11.835938 5.28125 -12.609375 4.40625 -13.359375 C 3.53125 -14.109375 2.878906 -14.960938 2.453125 -15.921875 C 2.035156 -16.890625 1.828125 -18.035156 1.828125 -19.359375 C 1.828125 -21.828125 2.726562 -23.753906 4.53125 -25.140625 C 6.332031 -26.523438 8.800781 -27.21875 11.9375 -27.21875 C 14.71875 -27.21875 17.550781 -26.570312 20.4375 -25.28125 L 18.21875 -19.6875 C 15.707031 -20.832031 13.539062 -21.40625 11.71875 -21.40625 C 10.78125 -21.40625 10.097656 -21.238281 9.671875 -20.90625 C 9.242188 -20.582031 9.03125 -20.175781 9.03125 -19.6875 C 9.03125 -19.164062 9.300781 -18.695312 9.84375 -18.28125 C 10.382812 -17.863281 11.863281 -17.101562 14.28125 -16 C 16.59375 -14.957031 18.195312 -13.835938 19.09375 -12.640625 C 19.988281 -11.453125 20.4375 -9.953125 20.4375 -8.140625 Z M 20.4375 -8.140625 "/></g></g></g><g fill="#000000" fill-opacity="1"><g transform="translate(130.34566, 246.185842)"><g><path d="M 20.4375 -8.140625 C 20.4375 -6.484375 20.015625 -5.007812 19.171875 -3.71875 C 18.328125 -2.425781 17.109375 -1.421875 15.515625 -0.703125 C 13.929688 0.00390625 12.066406 0.359375 9.921875 0.359375 C 8.140625 0.359375 6.640625 0.234375 5.421875 -0.015625 C 4.210938 -0.265625 2.957031 -0.703125 1.65625 -1.328125 L 1.65625 -7.78125 C 3.03125 -7.070312 4.460938 -6.515625 5.953125 -6.109375 C 7.453125 -5.710938 8.828125 -5.515625 10.078125 -5.515625 C 11.148438 -5.515625 11.9375 -5.703125 12.4375 -6.078125 C 12.9375 -6.453125 13.1875 -6.929688 13.1875 -7.515625 C 13.1875 -7.890625 13.085938 -8.210938 12.890625 -8.484375 C 12.691406 -8.765625 12.367188 -9.046875 11.921875 -9.328125 C 11.472656 -9.609375 10.28125 -10.179688 8.34375 -11.046875 C 6.59375 -11.835938 5.28125 -12.609375 4.40625 -13.359375 C 3.53125 -14.109375 2.878906 -14.960938 2.453125 -15.921875 C 2.035156 -16.890625 1.828125 -18.035156 1.828125 -19.359375 C 1.828125 -21.828125 2.726562 -23.753906 4.53125 -25.140625 C 6.332031 -26.523438 8.800781 -27.21875 11.9375 -27.21875 C 14.71875 -27.21875 17.550781 -26.570312 20.4375 -25.28125 L 18.21875 -19.6875 C 15.707031 -20.832031 13.539062 -21.40625 11.71875 -21.40625 C 10.78125 -21.40625 10.097656 -21.238281 9.671875 -20.90625 C 9.242188 -20.582031 9.03125 -20.175781 9.03125 -19.6875 C 9.03125 -19.164062 9.300781 -18.695312 9.84375 -18.28125 C 10.382812 -17.863281 11.863281 -17.101562 14.28125 -16 C 16.59375 -14.957031 18.195312 -13.835938 19.09375 -12.640625 C 19.988281 -11.453125 20.4375 -9.953125 20.4375 -8.140625 Z M 20.4375 -8.140625 "/></g></g></g><g fill="#000000" fill-opacity="1"><g transform="translate(152.036069, 246.185842)"><g/></g></g><g fill="#000000" fill-opacity="1"><g transform="translate(161.798588, 246.185842)"><g><path d="M 20.4375 -8.140625 C 20.4375 -6.484375 20.015625 -5.007812 19.171875 -3.71875 C 18.328125 -2.425781 17.109375 -1.421875 15.515625 -0.703125 C 13.929688 0.00390625 12.066406 0.359375 9.921875 0.359375 C 8.140625 0.359375 6.640625 0.234375 5.421875 -0.015625 C 4.210938 -0.265625 2.957031 -0.703125 1.65625 -1.328125 L 1.65625 -7.78125 C 3.03125 -7.070312 4.460938 -6.515625 5.953125 -6.109375 C 7.453125 -5.710938 8.828125 -5.515625 10.078125 -5.515625 C 11.148438 -5.515625 11.9375 -5.703125 12.4375 -6.078125 C 12.9375 -6.453125 13.1875 -6.929688 13.1875 -7.515625 C 13.1875 -7.890625 13.085938 -8.210938 12.890625 -8.484375 C 12.691406 -8.765625 12.367188 -9.046875 11.921875 -9.328125 C 11.472656 -9.609375 10.28125 -10.179688 8.34375 -11.046875 C 6.59375 -11.835938 5.28125 -12.609375 4.40625 -13.359375 C 3.53125 -14.109375 2.878906 -14.960938 2.453125 -15.921875 C 2.035156 -16.890625 1.828125 -18.035156 1.828125 -19.359375 C 1.828125 -21.828125 2.726562 -23.753906 4.53125 -25.140625 C 6.332031 -26.523438 8.800781 -27.21875 11.9375 -27.21875 C 14.71875 -27.21875 17.550781 -26.570312 20.4375 -25.28125 L 18.21875 -19.6875 C 15.707031 -20.832031 13.539062 -21.40625 11.71875 -21.40625 C 10.78125 -21.40625 10.097656 -21.238281 9.671875 -20.90625 C 9.242188 -20.582031 9.03125 -20.175781 9.03125 -19.6875 C 9.03125 -19.164062 9.300781 -18.695312 9.84375 -18.28125 C 10.382812 -17.863281 11.863281 -17.101562 14.28125 -16 C 16.59375 -14.957031 18.195312 -13.835938 19.09375 -12.640625 C 19.988281 -11.453125 20.4375 -9.953125 20.4375 -8.140625 Z M 20.4375 -8.140625 "/></g></g></g><g fill="#000000" fill-opacity="1"><g transform="translate(183.488997, 246.185842)"><g><path d="M 28 -13.453125 C 28 -8.929688 26.890625 -5.5 24.671875 -3.15625 C 22.460938 -0.8125 19.222656 0.359375 14.953125 0.359375 C 10.742188 0.359375 7.515625 -0.816406 5.265625 -3.171875 C 3.023438 -5.535156 1.90625 -8.972656 1.90625 -13.484375 C 1.90625 -17.953125 3.019531 -21.363281 5.25 -23.71875 C 7.488281 -26.070312 10.734375 -27.25 14.984375 -27.25 C 19.253906 -27.25 22.488281 -26.078125 24.6875 -23.734375 C 26.894531 -21.398438 28 -17.972656 28 -13.453125 Z M 9.546875 -13.453125 C 9.546875 -8.265625 11.347656 -5.671875 14.953125 -5.671875 C 16.785156 -5.671875 18.144531 -6.300781 19.03125 -7.5625 C 19.914062 -8.820312 20.359375 -10.785156 20.359375 -13.453125 C 20.359375 -16.128906 19.910156 -18.101562 19.015625 -19.375 C 18.117188 -20.65625 16.773438 -21.296875 14.984375 -21.296875 C 11.359375 -21.296875 9.546875 -18.679688 9.546875 -13.453125 Z M 9.546875 -13.453125 "/></g></g></g><g fill="#000000" fill-opacity="1"><g transform="translate(213.437176, 246.185842)"><g><path d="M 2.90625 0 L 2.90625 -26.828125 L 10.140625 -26.828125 L 10.140625 -5.859375 L 20.484375 -5.859375 L 20.484375 0 Z M 2.90625 0 "/></g></g></g><g fill="#000000" fill-opacity="1"><g transform="translate(235.311091, 246.185842)"><g><path d="M 19.359375 0 L 18.03125 -5.03125 L 9.328125 -5.03125 L 7.96875 0 L 0 0 L 8.75 -26.9375 L 18.421875 -26.9375 L 27.28125 0 Z M 16.53125 -10.96875 L 15.375 -15.375 C 15.101562 -16.351562 14.773438 -17.617188 14.390625 -19.171875 C 14.003906 -20.722656 13.753906 -21.835938 13.640625 -22.515625 C 13.523438 -21.890625 13.304688 -20.859375 12.984375 -19.421875 C 12.660156 -17.992188 11.941406 -15.175781 10.828125 -10.96875 Z M 16.53125 -10.96875 "/></g></g></g><g fill="#000000" fill-opacity="1"><g transform="translate(262.598439, 246.185842)"><g><path d="M 10.140625 -9.765625 L 10.140625 0 L 2.90625 0 L 2.90625 -26.828125 L 11.6875 -26.828125 C 18.976562 -26.828125 22.625 -24.1875 22.625 -18.90625 C 22.625 -15.789062 21.109375 -13.382812 18.078125 -11.6875 L 25.890625 0 L 17.671875 0 L 11.984375 -9.765625 Z M 10.140625 -15.21875 L 11.5 -15.21875 C 14.03125 -15.21875 15.296875 -16.332031 15.296875 -18.5625 C 15.296875 -20.414062 14.054688 -21.34375 11.578125 -21.34375 L 10.140625 -21.34375 Z M 10.140625 -15.21875 "/></g></g></g></svg>