<svg xmlns="http://www.w3.org/2000/svg" xmlns:xlink="http://www.w3.org/1999/xlink" width="500" zoomAndPan="magnify" viewBox="0 0 375 374.999991" height="500" preserveAspectRatio="xMidYMid meet" version="1.0"><defs><g/></defs><path fill="#1657cb" d="M 179.109375 163.195312 L 182.738281 163.195312 L 182.738281 166.824219 L 179.109375 166.824219 Z M 179.109375 167.90625 L 182.738281 167.90625 L 182.738281 171.535156 L 179.109375 171.535156 Z M 173.773438 167.90625 L 177.402344 167.90625 L 177.402344 171.535156 L 173.773438 171.535156 Z M 173.773438 163.195312 L 177.402344 163.195312 L 177.402344 166.824219 L 173.773438 166.824219 Z M 177.773438 144.5625 L 149.5 178.230469 C 149.675781 178.644531 149.863281 179.054688 150.054688 179.460938 L 177.773438 153.445312 L 213.484375 183.054688 C 216.964844 183.796875 220.132812 183.800781 222.839844 183.042969 L 198.257812 162.085938 L 198.257812 155.421875 L 195.34375 155.421875 L 195.34375 159.59375 Z M 177.773438 144.5625 " fill-opacity="1" fill-rule="evenodd"/><path fill="#e12060" d="M 224.265625 164.140625 L 231.871094 172.464844 C 231.710938 173.242188 231.515625 173.980469 231.28125 174.675781 L 222.539062 165.648438 Z M 216.25 155.367188 L 223.179688 162.949219 L 221.421875 164.480469 L 213.339844 156.105469 Z M 205.636719 148.117188 L 210.234375 148.789062 L 215.164062 154.183594 L 212.203125 154.933594 Z M 221.492188 166.566406 L 230.644531 176.304688 C 230.179688 177.320312 229.621094 178.230469 228.980469 179.035156 L 218.703125 169 Z M 211.917969 156.464844 L 220.378906 165.394531 L 217.53125 167.882812 L 206.929688 157.722656 Z M 195.328125 146.613281 L 203.746094 147.839844 L 210.800781 155.28125 L 205.71875 156.5625 Z M 217.65625 169.910156 L 228.066406 180.050781 C 227.117188 180.992188 226.03125 181.742188 224.820312 182.308594 C 221.5625 179.589844 214.800781 173.714844 214.046875 173.058594 Z M 205.503906 158.085938 L 216.496094 168.785156 L 212.820312 171.996094 L 199.753906 160.644531 L 199.753906 159.535156 Z M 181.242188 144.5625 L 193.441406 146.335938 L 204.3125 156.917969 L 199.753906 158.070312 L 199.753906 153.878906 L 193.777344 153.878906 L 193.777344 155.453125 Z M 181.242188 144.5625 " fill-opacity="1" fill-rule="evenodd"/><path fill="#ffbd59" d="M 179.03125 142.085938 L 176.238281 132.695312 L 174.078125 143.953125 C 173.097656 144.101562 172.128906 144.332031 171.171875 144.636719 L 164.046875 136.429688 L 166.503906 146.808594 C 165.421875 147.484375 164.382812 148.253906 163.417969 149.113281 L 154.1875 144.773438 L 160.042969 152.808594 C 159.199219 153.953125 158.449219 155.183594 157.820312 156.472656 L 148.773438 156.851562 L 156.25 160.738281 C 156.066406 161.453125 155.917969 162.179688 155.804688 162.917969 C 155.675781 163.785156 155.605469 164.632812 155.582031 165.464844 L 147.257812 168.28125 L 154.570312 169.390625 L 155.6875 168 L 177.488281 141.839844 Z M 187.355469 143.375 L 188.589844 135.078125 L 183.761719 142.824219 Z M 196.492188 144.789062 L 199.691406 141.09375 L 194.207031 144.433594 Z M 196.492188 144.789062 " fill-opacity="1" fill-rule="evenodd"/><path fill="#1657cb" d="M 171.523438 207.035156 C 146.664062 198.171875 133.710938 170.804688 142.582031 145.898438 C 151.457031 121 178.804688 107.996094 203.660156 116.851562 C 228.34375 125.648438 241.289062 152.699219 232.777344 177.460938 C 238.652344 154.003906 224.503906 129.085938 202.136719 121.117188 C 179.632812 113.101562 154.949219 124.675781 147 146.976562 C 140.453125 165.34375 147.3125 185.265625 162.515625 196.195312 C 173.121094 201.953125 181.574219 202.121094 188.359375 197.96875 C 184.273438 198.238281 180.210938 198.355469 176.304688 197.34375 C 162.976562 193.890625 159.980469 178.453125 174.070312 174.390625 C 179.492188 172.828125 191.039062 176.761719 200.042969 180.242188 C 212.53125 185.074219 218.054688 188.183594 231.496094 180.78125 L 231.488281 180.789062 C 221.628906 203.851562 195.425781 215.554688 171.523438 207.035156 " fill-opacity="1" fill-rule="evenodd"/><g fill="#e12060" fill-opacity="1"><g transform="translate(93.189585, 243.829818)"><g><path d="M 19.171875 -7.640625 C 19.171875 -6.078125 18.773438 -4.691406 17.984375 -3.484375 C 17.191406 -2.273438 16.050781 -1.332031 14.5625 -0.65625 C 13.070312 0.0078125 11.320312 0.34375 9.3125 0.34375 C 7.632812 0.34375 6.226562 0.226562 5.09375 0 C 3.957031 -0.238281 2.773438 -0.648438 1.546875 -1.234375 L 1.546875 -7.296875 C 2.847656 -6.628906 4.195312 -6.109375 5.59375 -5.734375 C 6.988281 -5.367188 8.273438 -5.1875 9.453125 -5.1875 C 10.460938 -5.1875 11.203125 -5.359375 11.671875 -5.703125 C 12.140625 -6.054688 12.375 -6.507812 12.375 -7.0625 C 12.375 -7.40625 12.28125 -7.703125 12.09375 -7.953125 C 11.90625 -8.210938 11.597656 -8.472656 11.171875 -8.734375 C 10.753906 -9.003906 9.640625 -9.546875 7.828125 -10.359375 C 6.191406 -11.109375 4.960938 -11.832031 4.140625 -12.53125 C 3.316406 -13.226562 2.707031 -14.03125 2.3125 -14.9375 C 1.914062 -15.84375 1.71875 -16.914062 1.71875 -18.15625 C 1.71875 -20.476562 2.5625 -22.285156 4.25 -23.578125 C 5.9375 -24.878906 8.253906 -25.53125 11.203125 -25.53125 C 13.804688 -25.53125 16.460938 -24.925781 19.171875 -23.71875 L 17.09375 -18.46875 C 14.738281 -19.550781 12.707031 -20.09375 11 -20.09375 C 10.113281 -20.09375 9.46875 -19.9375 9.0625 -19.625 C 8.664062 -19.3125 8.46875 -18.925781 8.46875 -18.46875 C 8.46875 -17.976562 8.722656 -17.535156 9.234375 -17.140625 C 9.742188 -16.753906 11.128906 -16.046875 13.390625 -15.015625 C 15.554688 -14.035156 17.0625 -12.984375 17.90625 -11.859375 C 18.75 -10.742188 19.171875 -9.335938 19.171875 -7.640625 Z M 19.171875 -7.640625 "/></g></g></g><g fill="#e12060" fill-opacity="1"><g transform="translate(113.534067, 243.829818)"><g><path d="M 19.171875 -7.640625 C 19.171875 -6.078125 18.773438 -4.691406 17.984375 -3.484375 C 17.191406 -2.273438 16.050781 -1.332031 14.5625 -0.65625 C 13.070312 0.0078125 11.320312 0.34375 9.3125 0.34375 C 7.632812 0.34375 6.226562 0.226562 5.09375 0 C 3.957031 -0.238281 2.773438 -0.648438 1.546875 -1.234375 L 1.546875 -7.296875 C 2.847656 -6.628906 4.195312 -6.109375 5.59375 -5.734375 C 6.988281 -5.367188 8.273438 -5.1875 9.453125 -5.1875 C 10.460938 -5.1875 11.203125 -5.359375 11.671875 -5.703125 C 12.140625 -6.054688 12.375 -6.507812 12.375 -7.0625 C 12.375 -7.40625 12.28125 -7.703125 12.09375 -7.953125 C 11.90625 -8.210938 11.597656 -8.472656 11.171875 -8.734375 C 10.753906 -9.003906 9.640625 -9.546875 7.828125 -10.359375 C 6.191406 -11.109375 4.960938 -11.832031 4.140625 -12.53125 C 3.316406 -13.226562 2.707031 -14.03125 2.3125 -14.9375 C 1.914062 -15.84375 1.71875 -16.914062 1.71875 -18.15625 C 1.71875 -20.476562 2.5625 -22.285156 4.25 -23.578125 C 5.9375 -24.878906 8.253906 -25.53125 11.203125 -25.53125 C 13.804688 -25.53125 16.460938 -24.925781 19.171875 -23.71875 L 17.09375 -18.46875 C 14.738281 -19.550781 12.707031 -20.09375 11 -20.09375 C 10.113281 -20.09375 9.46875 -19.9375 9.0625 -19.625 C 8.664062 -19.3125 8.46875 -18.925781 8.46875 -18.46875 C 8.46875 -17.976562 8.722656 -17.535156 9.234375 -17.140625 C 9.742188 -16.753906 11.128906 -16.046875 13.390625 -15.015625 C 15.554688 -14.035156 17.0625 -12.984375 17.90625 -11.859375 C 18.75 -10.742188 19.171875 -9.335938 19.171875 -7.640625 Z M 19.171875 -7.640625 "/></g></g></g><g fill="#e12060" fill-opacity="1"><g transform="translate(133.878548, 243.829818)"><g><path d="M 19.171875 -7.640625 C 19.171875 -6.078125 18.773438 -4.691406 17.984375 -3.484375 C 17.191406 -2.273438 16.050781 -1.332031 14.5625 -0.65625 C 13.070312 0.0078125 11.320312 0.34375 9.3125 0.34375 C 7.632812 0.34375 6.226562 0.226562 5.09375 0 C 3.957031 -0.238281 2.773438 -0.648438 1.546875 -1.234375 L 1.546875 -7.296875 C 2.847656 -6.628906 4.195312 -6.109375 5.59375 -5.734375 C 6.988281 -5.367188 8.273438 -5.1875 9.453125 -5.1875 C 10.460938 -5.1875 11.203125 -5.359375 11.671875 -5.703125 C 12.140625 -6.054688 12.375 -6.507812 12.375 -7.0625 C 12.375 -7.40625 12.28125 -7.703125 12.09375 -7.953125 C 11.90625 -8.210938 11.597656 -8.472656 11.171875 -8.734375 C 10.753906 -9.003906 9.640625 -9.546875 7.828125 -10.359375 C 6.191406 -11.109375 4.960938 -11.832031 4.140625 -12.53125 C 3.316406 -13.226562 2.707031 -14.03125 2.3125 -14.9375 C 1.914062 -15.84375 1.71875 -16.914062 1.71875 -18.15625 C 1.71875 -20.476562 2.5625 -22.285156 4.25 -23.578125 C 5.9375 -24.878906 8.253906 -25.53125 11.203125 -25.53125 C 13.804688 -25.53125 16.460938 -24.925781 19.171875 -23.71875 L 17.09375 -18.46875 C 14.738281 -19.550781 12.707031 -20.09375 11 -20.09375 C 10.113281 -20.09375 9.46875 -19.9375 9.0625 -19.625 C 8.664062 -19.3125 8.46875 -18.925781 8.46875 -18.46875 C 8.46875 -17.976562 8.722656 -17.535156 9.234375 -17.140625 C 9.742188 -16.753906 11.128906 -16.046875 13.390625 -15.015625 C 15.554688 -14.035156 17.0625 -12.984375 17.90625 -11.859375 C 18.75 -10.742188 19.171875 -9.335938 19.171875 -7.640625 Z M 19.171875 -7.640625 "/></g></g></g><g fill="#e12060" fill-opacity="1"><g transform="translate(154.223029, 243.829818)"><g/></g></g><g fill="#e12060" fill-opacity="1"><g transform="translate(163.379767, 243.829818)"><g><path d="M 19.171875 -7.640625 C 19.171875 -6.078125 18.773438 -4.691406 17.984375 -3.484375 C 17.191406 -2.273438 16.050781 -1.332031 14.5625 -0.65625 C 13.070312 0.0078125 11.320312 0.34375 9.3125 0.34375 C 7.632812 0.34375 6.226562 0.226562 5.09375 0 C 3.957031 -0.238281 2.773438 -0.648438 1.546875 -1.234375 L 1.546875 -7.296875 C 2.847656 -6.628906 4.195312 -6.109375 5.59375 -5.734375 C 6.988281 -5.367188 8.273438 -5.1875 9.453125 -5.1875 C 10.460938 -5.1875 11.203125 -5.359375 11.671875 -5.703125 C 12.140625 -6.054688 12.375 -6.507812 12.375 -7.0625 C 12.375 -7.40625 12.28125 -7.703125 12.09375 -7.953125 C 11.90625 -8.210938 11.597656 -8.472656 11.171875 -8.734375 C 10.753906 -9.003906 9.640625 -9.546875 7.828125 -10.359375 C 6.191406 -11.109375 4.960938 -11.832031 4.140625 -12.53125 C 3.316406 -13.226562 2.707031 -14.03125 2.3125 -14.9375 C 1.914062 -15.84375 1.71875 -16.914062 1.71875 -18.15625 C 1.71875 -20.476562 2.5625 -22.285156 4.25 -23.578125 C 5.9375 -24.878906 8.253906 -25.53125 11.203125 -25.53125 C 13.804688 -25.53125 16.460938 -24.925781 19.171875 -23.71875 L 17.09375 -18.46875 C 14.738281 -19.550781 12.707031 -20.09375 11 -20.09375 C 10.113281 -20.09375 9.46875 -19.9375 9.0625 -19.625 C 8.664062 -19.3125 8.46875 -18.925781 8.46875 -18.46875 C 8.46875 -17.976562 8.722656 -17.535156 9.234375 -17.140625 C 9.742188 -16.753906 11.128906 -16.046875 13.390625 -15.015625 C 15.554688 -14.035156 17.0625 -12.984375 17.90625 -11.859375 C 18.75 -10.742188 19.171875 -9.335938 19.171875 -7.640625 Z M 19.171875 -7.640625 "/></g></g></g><g fill="#e12060" fill-opacity="1"><g transform="translate(183.724249, 243.829818)"><g><path d="M 26.265625 -12.609375 C 26.265625 -8.378906 25.222656 -5.160156 23.140625 -2.953125 C 21.066406 -0.753906 18.03125 0.34375 14.03125 0.34375 C 10.082031 0.34375 7.054688 -0.757812 4.953125 -2.96875 C 2.847656 -5.1875 1.796875 -8.414062 1.796875 -12.65625 C 1.796875 -16.84375 2.84375 -20.039062 4.9375 -22.25 C 7.03125 -24.457031 10.070312 -25.5625 14.0625 -25.5625 C 18.0625 -25.5625 21.09375 -24.460938 23.15625 -22.265625 C 25.226562 -20.078125 26.265625 -16.859375 26.265625 -12.609375 Z M 8.953125 -12.609375 C 8.953125 -7.742188 10.644531 -5.3125 14.03125 -5.3125 C 15.75 -5.3125 17.023438 -5.898438 17.859375 -7.078125 C 18.691406 -8.265625 19.109375 -10.109375 19.109375 -12.609375 C 19.109375 -15.128906 18.6875 -16.988281 17.84375 -18.1875 C 17 -19.382812 15.738281 -19.984375 14.0625 -19.984375 C 10.65625 -19.984375 8.953125 -17.523438 8.953125 -12.609375 Z M 8.953125 -12.609375 "/></g></g></g><g fill="#e12060" fill-opacity="1"><g transform="translate(211.81409, 243.829818)"><g><path d="M 2.71875 0 L 2.71875 -25.15625 L 9.515625 -25.15625 L 9.515625 -5.484375 L 19.203125 -5.484375 L 19.203125 0 Z M 2.71875 0 "/></g></g></g><g fill="#e12060" fill-opacity="1"><g transform="translate(232.330691, 243.829818)"><g><path d="M 18.15625 0 L 16.921875 -4.71875 L 8.75 -4.71875 L 7.46875 0 L 0 0 L 8.203125 -25.265625 L 17.28125 -25.265625 L 25.59375 0 Z M 15.515625 -10.296875 L 14.421875 -14.421875 C 14.171875 -15.335938 13.863281 -16.523438 13.5 -17.984375 C 13.132812 -19.441406 12.894531 -20.488281 12.78125 -21.125 C 12.6875 -20.53125 12.484375 -19.5625 12.171875 -18.21875 C 11.867188 -16.882812 11.195312 -14.242188 10.15625 -10.296875 Z M 15.515625 -10.296875 "/></g></g></g><g fill="#e12060" fill-opacity="1"><g transform="translate(257.924805, 243.829818)"><g><path d="M 9.515625 -9.15625 L 9.515625 0 L 2.71875 0 L 2.71875 -25.15625 L 10.96875 -25.15625 C 17.800781 -25.15625 21.21875 -22.679688 21.21875 -17.734375 C 21.21875 -14.816406 19.796875 -12.5625 16.953125 -10.96875 L 24.28125 0 L 16.578125 0 L 11.234375 -9.15625 Z M 9.515625 -14.265625 L 10.796875 -14.265625 C 13.171875 -14.265625 14.359375 -15.316406 14.359375 -17.421875 C 14.359375 -19.148438 13.191406 -20.015625 10.859375 -20.015625 L 9.515625 -20.015625 Z M 9.515625 -14.265625 "/></g></g></g></svg>