<svg version="1.1" id="Layer_1" xmlns="http://www.w3.org/2000/svg" xmlns:xlink="http://www.w3.org/1999/xlink" x="0px" y="0px"
	 width="100%" viewBox="0 0 1024 1024" enable-background="new 0 0 1024 1024" xml:space="preserve">
<path fill="#000000" opacity="1.000000" stroke="none" 
	d="
M306.921692,559.300781 
	C311.911621,520.595154 328.847931,487.949463 353.664825,458.987701 
	C354.423248,458.102600 355.174561,457.209564 355.889832,456.289642 
	C358.102203,453.444550 357.313721,451.726013 353.867401,451.095001 
	C347.208740,449.875763 340.565247,448.554901 333.879272,447.507416 
	C321.422882,445.555817 308.876007,444.230865 296.475983,441.851715 
	C291.102264,440.820679 285.579559,440.585968 280.142792,439.854095 
	C277.911987,439.553772 275.491913,439.721344 273.248657,437.850128 
	C274.603760,436.184540 276.591187,436.345551 278.139923,435.980103 
	C310.859497,428.259644 343.378845,419.761414 375.830017,410.994629 
	C376.794403,410.734070 377.750763,410.443787 378.715698,410.185486 
	C380.891266,409.603088 382.145111,408.151001 382.434875,405.972382 
	C382.733276,403.729187 381.022339,402.743500 379.451019,401.797668 
	C366.754883,394.155334 354.048828,386.529419 341.335846,378.915070 
	C324.193573,368.647858 307.039185,358.400909 289.904053,348.121765 
	C288.967072,347.559662 287.679138,347.192383 287.799164,345.263031 
	C290.760498,344.120026 293.810608,345.044678 296.795715,345.491394 
	C308.750671,347.280518 320.705200,349.080994 332.633484,351.038116 
	C347.144714,353.419037 361.593140,356.212585 376.142822,358.314850 
	C382.206207,359.190918 388.351624,359.642792 394.415527,360.653412 
	C397.650421,361.192596 399.757111,359.685211 401.465942,357.060822 
	C403.441742,354.026428 400.889587,352.379303 399.542480,350.555328 
	C379.849487,323.891968 360.074097,297.289551 340.345917,270.652130 
	C339.488098,269.493927 338.257141,268.422943 338.567017,266.607666 
	C340.678864,265.312836 341.953125,267.242218 343.340240,268.080811 
	C369.254822,283.747681 395.127716,299.483490 421.007874,315.207306 
	C423.567932,316.762756 426.144623,318.293121 428.665344,319.910370 
	C430.751404,321.248718 432.738220,322.109863 435.035095,320.256927 
	C437.226471,318.489197 438.683899,316.742523 438.021881,313.509125 
	C434.620544,296.896362 430.935944,280.352448 426.960205,263.866730 
	C422.824799,246.719131 418.947693,229.509171 414.999695,212.316818 
	C414.830200,211.578827 415.083191,210.743820 415.146271,209.857681 
	C417.876038,209.892975 418.631073,212.027985 419.689240,213.516113 
	C439.088928,240.797195 459.399963,267.404327 479.340454,294.285065 
	C480.129181,295.348297 480.900482,296.540680 481.958771,297.266052 
	C485.210541,299.494812 489.583099,297.786652 490.414764,293.783386 
	C493.311951,279.837372 495.932617,265.833832 498.842682,251.890579 
	C500.809448,242.467209 503.210175,233.134567 505.189728,223.713638 
	C507.276001,213.784943 509.067627,203.794632 511.052856,193.844177 
	C511.358612,192.311508 511.365448,190.495758 514.115356,189.121185 
	C515.540039,196.096970 516.884949,202.667923 518.223633,209.240158 
	C523.805603,236.643799 529.364197,264.052246 535.000671,291.444702 
	C535.549805,294.113190 535.686279,297.189606 539.402283,297.936554 
	C543.216614,298.703278 545.089661,296.572327 547.090576,293.815674 
	C566.361572,267.265717 585.721741,240.780350 605.117432,214.321213 
	C606.334290,212.661209 607.164673,210.486160 610.024780,209.552216 
	C609.693115,216.135162 607.776428,222.079376 606.446838,228.096634 
	C602.071594,247.896622 597.530884,267.660004 593.082275,287.443848 
	C591.404724,294.904572 589.846130,302.392090 588.152405,309.849060 
	C587.294434,313.626129 585.977600,317.376465 590.227966,320.137238 
	C594.203918,322.719727 596.655457,319.641266 599.570557,317.880005 
	C622.229309,304.190155 644.894470,290.510468 667.616211,276.925598 
	C673.980469,273.120483 680.102905,268.844238 687.381592,265.596588 
	C687.835144,268.852417 685.712830,270.325378 684.477295,272.000397 
	C669.454773,292.365967 654.320374,312.648926 639.251343,332.980286 
	C634.788757,339.001373 630.356323,345.049011 626.096985,351.213654 
	C625.010620,352.785889 622.575928,354.161255 624.333618,356.830872 
	C625.920105,359.240662 627.877258,360.820282 630.901367,360.477112 
	C636.503052,359.841461 642.196655,359.594208 647.675415,358.385315 
	C658.887817,355.911194 670.305847,354.885040 681.598267,353.002258 
	C698.800720,350.134094 716.075195,347.696930 733.322449,345.099243 
	C734.868042,344.866455 736.516174,343.988098 738.464661,345.993988 
	C732.281616,349.779480 726.312439,353.513855 720.267395,357.121063 
	C695.534546,371.879761 670.774902,386.593719 646.038086,401.345734 
	C644.204773,402.439026 642.066284,403.426514 642.737061,406.255280 
	C643.342896,408.810303 644.996399,410.094055 647.520630,410.734650 
	C671.189392,416.741058 694.836365,422.833313 718.499268,428.862793 
	C729.491516,431.663666 740.505188,434.380859 751.515747,437.824982 
	C723.703247,443.379608 695.503113,446.158844 666.273926,452.058990 
	C704.476257,494.138916 724.899353,541.208801 719.711060,597.375488 
	C717.732300,588.264404 716.177002,579.023499 714.120605,569.861450 
	C707.975159,542.480591 695.516296,518.230469 677.861816,496.682739 
	C653.218994,466.605743 622.072144,446.181519 584.790161,434.880524 
	C570.722473,430.616333 556.423462,427.430939 541.953003,425.667938 
	C526.630493,423.801147 511.155487,423.687469 495.619202,424.909119 
	C464.582214,427.349579 434.924286,434.353882 407.222565,448.806824 
	C374.459015,465.900604 348.920319,490.508209 330.798798,522.745300 
	C318.906616,543.900696 311.670227,566.566223 308.838043,590.666870 
	C308.517914,593.390869 307.625061,596.047607 306.495178,598.665222 
	C304.783722,585.632996 305.843140,572.692383 306.921692,559.300781 
M538.309570,391.018524 
	C569.153625,394.210052 598.355103,402.903320 625.130737,417.888489 
	C627.437012,415.823639 626.801636,414.154083 626.609680,412.534393 
	C623.822144,389.015869 614.219177,368.509033 598.992859,350.562531 
	C566.380554,312.124054 516.054504,301.033020 470.746613,318.742279 
	C444.127869,329.146606 424.560181,347.858795 411.485687,373.296692 
	C405.121613,385.678711 401.360199,398.899261 399.468536,412.614349 
	C398.778412,417.617859 400.441864,418.585327 404.731232,416.261200 
	C417.644531,409.264374 431.178894,403.875458 445.204437,399.525635 
	C458.106750,395.524139 471.309113,392.953979 484.608093,391.161133 
	C502.126312,388.799469 519.771790,389.134552 538.309570,391.018524 
z"/>
<path fill="#000000" opacity="1.000000" stroke="none" 
	d="
M553.472534,767.791992 
	C562.372314,791.697205 551.719604,814.824890 528.979187,820.562927 
	C506.915985,826.129944 485.870941,814.849060 482.153290,792.988525 
	C478.126831,769.312317 489.900452,751.177795 510.852570,747.275391 
	C528.265137,744.032288 545.237793,749.974182 553.472534,767.791992 
M527.806213,805.468384 
	C539.456787,798.483643 543.419434,786.029297 538.065735,773.223450 
	C534.005493,763.511475 521.538635,758.338013 511.760010,762.307007 
	C500.406006,766.915466 494.779449,780.617432 499.028198,792.729553 
	C503.182739,804.573181 515.928894,810.845398 527.806213,805.468384 
z"/>
<path fill="#000000" opacity="1.000000" stroke="none" 
	d="
M732.708130,812.288696 
	C729.440002,807.227478 726.266541,802.534119 723.314026,797.705688 
	C721.616089,794.929016 719.420105,793.559326 716.265625,794.506165 
	C713.277832,795.403137 714.455933,798.091370 714.400818,800.049255 
	C714.246155,805.541809 714.265564,811.042358 714.354431,816.537476 
	C714.398865,819.286804 713.286438,820.455872 710.517639,820.385559 
	C695.977783,820.016479 698.101196,823.065735 698.021484,808.816528 
	C697.917969,790.328491 698.153503,771.838257 698.002075,753.350952 
	C697.967163,749.091858 699.142700,747.394775 703.638977,747.569397 
	C711.788818,747.885864 719.961609,747.550842 728.120728,747.703430 
	C745.115784,748.021301 754.620911,759.065674 752.241699,775.854431 
	C751.106201,783.866638 745.687439,788.633240 738.205994,791.998718 
	C743.077393,801.940125 750.717834,809.802124 755.949707,820.214722 
	C749.829468,820.214722 744.349915,820.749939 739.042358,820.025208 
	C735.548035,819.548035 734.910522,815.158447 732.708130,812.288696 
M722.418213,761.347656 
	C714.350586,761.385864 714.350586,761.385864 714.352173,769.450500 
	C714.354553,781.795288 714.354553,781.795288 726.718567,780.621887 
	C732.372253,780.085327 736.484009,776.212158 736.632507,771.283081 
	C736.784546,766.238525 733.053406,762.270142 727.303284,761.468567 
	C725.997192,761.286499 724.652588,761.380737 722.418213,761.347656 
z"/>
<path fill="#000000" opacity="1.000000" stroke="none" 
	d="
M489.495026,661.497192 
	C486.261078,657.504456 480.645447,654.782837 480.454742,650.214233 
	C480.262939,645.619507 485.586609,642.464478 488.594635,638.773438 
	C495.942535,629.757019 503.489624,620.903198 510.860657,611.905396 
	C512.954041,609.350098 514.527954,609.799744 516.409729,612.073547 
	C525.950623,623.601807 535.539246,635.090576 545.130676,646.576904 
	C546.478638,648.191162 547.620422,649.594055 545.725281,651.715576 
	C534.997925,663.724182 524.351501,675.805054 513.237488,688.358276 
	C505.267029,679.337463 497.500092,670.547058 489.495026,661.497192 
z"/>
<path fill="#000000" opacity="1.000000" stroke="none" 
	d="
M356.299011,696.775635 
	C349.481201,693.186340 343.364716,689.180481 337.351074,684.992798 
	C335.121796,683.440308 334.195435,681.657349 335.172943,679.069092 
	C342.894684,658.624146 352.480316,639.112793 364.422333,620.786377 
	C364.582886,620.539917 364.971466,620.442078 365.359070,620.212463 
	C365.734406,620.372070 366.319458,620.435120 366.581970,620.759338 
	C375.374207,631.617798 384.110626,642.521545 392.923950,653.362793 
	C394.563141,655.379150 394.446442,657.218628 393.173309,659.282227 
	C384.964386,672.587280 376.536469,685.767212 369.657288,699.841980 
	C368.429199,702.354675 366.563232,701.969177 364.626923,701.036316 
	C361.929779,699.736816 359.289886,698.318481 356.299011,696.775635 
z"/>
<path fill="#000000" opacity="1.000000" stroke="none" 
	d="
M483.319336,575.689331 
	C490.897888,584.124573 498.187592,592.345215 505.608459,600.445618 
	C507.867035,602.911011 507.715942,604.738464 505.541199,607.276489 
	C495.902313,618.525391 486.408905,629.900818 476.990387,641.335449 
	C474.826660,643.962341 473.134125,643.966980 470.995544,641.503357 
	C461.613403,630.695251 452.193756,619.919800 442.782104,609.137390 
	C441.440918,607.600830 440.836151,606.024597 442.364899,604.254822 
	C452.806122,592.167236 462.707214,579.603027 474.071899,568.332092 
	C474.398071,568.008606 474.949799,567.912415 475.500732,567.662964 
	C478.904358,569.395325 480.308228,573.096313 483.319336,575.689331 
z"/>
<path fill="#000000" opacity="1.000000" stroke="none" 
	d="
M405.036194,655.675903 
	C405.829559,650.898132 409.011169,647.775940 411.507294,644.339661 
	C418.344360,634.927368 425.532074,625.770508 432.448090,616.414307 
	C434.759155,613.287781 436.341156,612.754578 439.254822,616.080627 
	C448.234741,626.331543 457.531250,636.307617 466.816498,646.286560 
	C468.909882,648.536377 469.782898,650.317322 467.543732,653.093933 
	C457.840881,665.125366 448.288269,677.278137 438.711182,689.410583 
	C438.197937,690.060730 437.959747,690.927979 437.321655,692.263000 
	C424.953918,680.447449 415.165863,668.138916 405.036194,655.675903 
z"/>
<path fill="#000000" opacity="1.000000" stroke="none" 
	d="
M687.185669,672.005127 
	C691.642029,683.976685 692.345337,681.768982 682.049500,688.783081 
	C674.358704,694.022522 666.254639,698.529175 657.200134,702.453613 
	C653.679443,696.085022 650.385376,689.977905 646.951050,683.950623 
	C642.339661,675.857910 637.650635,667.808960 632.926270,659.781555 
	C631.672607,657.651184 630.872925,655.933655 632.846741,653.542542 
	C641.424622,643.150879 649.791260,632.584839 658.259033,622.101868 
	C658.750366,621.493652 659.457031,621.059326 660.610352,620.079529 
	C671.334839,636.579590 679.865784,653.756470 687.185669,672.005127 
z"/>
<path fill="#000000" opacity="1.000000" stroke="none" 
	d="
M525.264771,595.278198 
	C533.544495,585.924072 541.307739,576.576172 549.946106,568.227661 
	C552.154602,568.106750 553.141357,569.609314 554.198792,570.804810 
	C563.578796,581.408936 572.841614,592.117676 582.300476,602.650635 
	C584.915039,605.562073 585.024658,607.546448 582.239319,610.600708 
	C573.150146,620.567444 564.418884,630.860413 555.548157,641.026367 
	C554.681152,642.019958 553.947937,643.181580 552.083435,643.640381 
	C545.361755,635.644348 538.527039,627.506287 531.683167,619.375977 
	C528.464233,615.552063 525.459106,611.510681 521.929749,607.996948 
	C518.813965,604.894775 518.430237,602.298645 521.666077,599.236267 
	C522.871826,598.095215 523.906799,596.773865 525.264771,595.278198 
z"/>
<path fill="#000000" opacity="1.000000" stroke="none" 
	d="
M591.171875,614.014282 
	C600.595703,626.516357 609.702271,638.836426 618.971252,651.033020 
	C621.406677,654.237732 621.407959,656.557495 618.505615,659.622559 
	C609.804626,668.811401 601.407288,678.288269 592.934875,687.691956 
	C591.833923,688.913940 590.988037,690.365723 589.578430,692.332825 
	C586.678833,688.694763 584.601196,686.184021 582.627258,683.594299 
	C575.058350,673.664246 567.591675,663.655334 559.928650,653.798767 
	C557.894714,651.182556 557.341064,649.309570 559.858459,646.518066 
	C568.891235,636.501648 577.639038,626.228821 586.570557,616.120056 
	C587.655457,614.892151 588.459778,612.661316 591.171875,614.014282 
z"/>
<path fill="#000000" opacity="1.000000" stroke="none" 
	d="
M464.300415,719.796936 
	C457.542816,713.081116 451.078094,706.586182 444.530853,700.175537 
	C442.781250,698.462463 441.779846,696.887878 443.589905,694.615784 
	C453.446808,682.243164 463.270081,669.843933 473.127655,657.471924 
	C473.522034,656.976868 474.145966,656.664734 474.843445,656.128540 
	C478.388855,658.260925 480.483124,661.747986 483.119873,664.639038 
	C490.865265,673.131348 498.386871,681.828064 506.150970,690.302917 
	C508.589294,692.964417 508.376831,694.944824 506.127777,697.601379 
	C499.349152,705.608215 492.805908,713.814026 486.126160,721.905396 
	C485.409210,722.773865 484.380005,724.057678 483.526978,724.033630 
	C476.987854,723.849670 469.711761,726.843506 464.300415,719.796936 
z"/>
<path fill="#000000" opacity="1.000000" stroke="none" 
	d="
M670.816772,770.301025 
	C676.971313,786.830566 682.976196,803.001282 689.273010,819.958069 
	C683.449097,820.642334 678.539673,820.521606 673.657410,820.122986 
	C671.373413,819.936462 671.308167,817.547729 670.665649,815.941223 
	C666.253052,804.909241 666.277466,804.899414 654.277344,804.961304 
	C654.110840,804.962219 653.940063,804.988708 653.778503,804.960876 
	C644.288757,803.326172 637.607361,805.829102 636.162476,816.554749 
	C635.776489,819.420044 633.773621,820.658569 630.758911,820.406982 
	C626.826904,820.078918 622.826355,820.826416 618.148865,819.742249 
	C620.216797,813.904114 622.134338,808.323486 624.166321,802.784851 
	C630.410950,785.764282 636.762939,768.782776 642.910645,751.727478 
	C643.983582,748.750854 645.530701,747.644104 648.699768,747.577515 
	C662.483765,747.288330 662.473938,747.198669 667.056519,760.103516 
	C668.225403,763.395325 669.461731,766.663269 670.816772,770.301025 
M648.039368,783.315430 
	C647.382202,785.638306 645.754028,787.767456 646.585632,790.663147 
	C651.332581,791.211365 656.020203,791.306702 661.207642,790.468384 
	C659.124268,782.835632 657.155579,775.781616 653.548584,767.690186 
	C651.458252,773.585144 649.864319,778.080261 648.039368,783.315430 
z"/>
<path fill="#000000" opacity="1.000000" stroke="none" 
	d="
M574.215576,707.207886 
	C570.738281,710.595154 566.871338,713.291565 564.428650,716.941223 
	C559.169922,724.798096 551.529968,724.524353 543.669067,724.348877 
	C541.755920,724.306091 540.682678,723.209961 539.630127,721.840820 
	C533.341980,713.661255 527.039429,705.492554 520.692688,697.358459 
	C519.145264,695.375183 518.070007,693.611084 520.180298,691.241211 
	C530.137024,680.059937 540.003235,668.798157 549.945374,657.603821 
	C550.565430,656.905640 551.557434,656.537842 552.580139,655.886597 
	C557.241882,660.415649 560.592651,665.804443 564.442261,670.774048 
	C570.250732,678.272278 575.864563,685.921448 581.690002,693.406189 
	C583.537231,695.779541 583.844788,697.578674 581.389038,699.759521 
	C578.910095,701.961121 576.763672,704.537170 574.215576,707.207886 
z"/>
<path fill="#000000" opacity="1.000000" stroke="none" 
	d="
M381.767731,594.792175 
	C387.898590,587.137085 393.810547,579.763123 399.420654,572.765625 
	C402.195465,572.899719 403.101746,574.453125 404.148621,575.659668 
	C412.227325,584.970398 420.211121,594.363770 428.321930,603.646179 
	C430.099426,605.680420 430.710083,607.454285 428.967651,609.806946 
	C419.552704,622.518982 410.197632,635.275330 400.794006,647.995850 
	C400.429413,648.489014 399.780487,648.772034 398.952393,649.382874 
	C394.078339,645.409119 390.623962,640.300049 386.778412,635.578918 
	C381.627563,629.255249 376.731934,622.723572 371.576508,616.403748 
	C369.564362,613.937195 369.424866,611.735535 371.277191,609.219971 
	C374.732452,604.527527 378.128296,599.791321 381.767731,594.792175 
z"/>
<path fill="#000000" opacity="1.000000" stroke="none" 
	d="
M652.058960,605.998657 
	C656.725403,612.981445 656.837891,613.070679 651.803040,619.417847 
	C644.351868,628.811157 636.730835,638.069885 629.152222,647.361450 
	C628.554016,648.094849 627.722412,648.637939 627.198914,649.095093 
	C625.496582,648.917786 624.801697,647.936584 624.172546,646.975464 
	C615.769897,634.139893 606.417419,621.997437 597.079224,609.845947 
	C595.736755,608.099060 595.008545,606.656982 596.791260,604.620911 
	C605.787842,594.345642 614.669495,583.969788 623.618835,573.653015 
	C624.020386,573.190125 624.688171,572.958191 625.613037,572.380676 
	C635.066895,583.042358 643.610901,594.251526 652.058960,605.998657 
z"/>
<path fill="#000000" opacity="1.000000" stroke="none" 
	d="
M469.489075,562.644287 
	C459.123993,574.578125 448.852173,586.158997 438.688995,597.834351 
	C436.455536,600.400146 434.698334,600.861389 432.272430,598.055969 
	C424.216156,588.739136 416.072723,579.496277 407.856720,570.320007 
	C405.657959,567.864258 405.630096,566.013000 407.910065,563.506348 
	C416.981018,553.533264 425.761505,543.309509 435.584534,534.021179 
	C438.873230,530.911560 440.919098,531.204529 443.782867,534.236755 
	C451.781281,542.705811 459.970184,550.994690 468.049500,559.387817 
	C468.816742,560.184814 469.885437,560.928833 469.489075,562.644287 
z"/>
<path fill="#000000" opacity="1.000000" stroke="none" 
	d="
M515.792114,531.203552 
	C524.978699,540.407654 533.905762,549.372925 542.855774,558.315186 
	C544.754883,560.212646 546.260071,561.988342 543.849304,564.649780 
	C534.020508,575.500854 524.263672,586.417053 514.467163,597.297363 
	C514.260071,597.527344 513.894531,597.614746 513.568787,597.786621 
	C511.705414,597.648071 510.779266,596.139038 509.694824,594.945557 
	C500.967590,585.340759 492.373383,575.612671 483.518646,566.127563 
	C480.670227,563.076355 480.355896,561.002014 483.523163,557.871643 
	C492.044708,549.449280 500.182831,540.640320 508.598999,532.109009 
	C510.449829,530.232849 512.595947,527.450500 515.792114,531.203552 
z"/>
<path fill="#000000" opacity="1.000000" stroke="none" 
	d="
M586.333862,596.732300 
	C577.475098,586.303894 568.886353,576.110413 559.479126,566.668945 
	C556.139099,563.316772 556.385315,561.123596 559.672913,557.656860 
	C567.231384,549.686584 574.730286,541.668091 582.491211,533.887146 
	C585.249329,531.121887 587.294800,531.127258 590.048523,533.699585 
	C600.290344,543.266968 609.455200,553.831787 618.768738,564.264954 
	C620.448730,566.146851 620.247620,567.781616 618.697205,569.529785 
	C610.081909,579.243896 601.502869,588.990356 592.849487,598.670349 
	C589.812378,602.067749 588.374573,598.674255 586.333862,596.732300 
z"/>
<path fill="#000000" opacity="1.000000" stroke="none" 
	d="
M263.698730,749.356812 
	C266.743378,750.307617 266.389465,752.522949 266.310150,754.459167 
	C266.170135,757.878174 266.957123,761.381775 265.542206,765.166382 
	C260.297363,763.794983 255.447601,761.581177 250.154495,760.887573 
	C247.546738,760.545837 245.187241,760.861084 242.801346,761.438232 
	C239.794495,762.165649 237.925018,764.208008 237.405624,767.300537 
	C236.844681,770.640442 238.685532,772.876892 241.421265,774.046326 
	C245.997406,776.002502 250.779434,777.471008 255.437363,779.243103 
	C263.328339,782.245422 269.290192,786.881958 270.735474,795.984619 
	C272.396118,806.443665 267.386139,815.925110 257.399811,819.498474 
	C246.052994,823.558533 234.851837,822.572021 223.912537,817.702820 
	C222.309860,816.989502 220.866653,816.156555 220.866409,814.177734 
	C220.865906,810.231323 220.216446,806.245422 221.427368,801.839478 
	C227.636536,803.489624 233.381577,806.225708 239.615128,807.065857 
	C241.253067,807.286621 242.944168,807.723633 244.541458,807.519226 
	C249.053665,806.941650 253.373062,805.380127 254.143036,800.293213 
	C254.903030,795.272217 250.757935,793.714783 246.955780,792.151917 
	C241.879532,790.065369 236.438690,789.062378 231.492554,786.543823 
	C224.420792,782.942810 220.856354,777.411499 220.623535,769.457397 
	C220.370743,760.821533 223.516235,754.071960 231.266174,750.086365 
	C241.718063,744.711426 252.522110,745.957520 263.698730,749.356812 
z"/>
<path fill="#000000" opacity="1.000000" stroke="none" 
	d="
M463.694977,782.149414 
	C471.590393,787.617859 474.438965,794.879395 472.808685,803.479980 
	C470.817291,813.985596 463.756561,818.995789 454.108124,821.092285 
	C445.433228,822.977295 436.950104,821.697937 428.589203,818.847107 
	C424.343231,817.399353 422.217377,815.046143 422.836578,810.399353 
	C423.183319,807.796936 422.499176,805.087036 423.633942,801.812012 
	C429.582062,803.378235 435.173889,805.954590 441.157227,807.107605 
	C445.078857,807.863342 448.795685,807.899170 452.302002,805.950745 
	C457.928925,802.823853 458.081696,797.206909 452.715302,793.666199 
	C449.595825,791.607971 445.879120,791.101135 442.472839,789.785522 
	C440.298828,788.945862 438.066315,788.251282 435.917114,787.354736 
	C427.015900,783.641418 422.660828,777.110840 422.943939,768.015625 
	C423.242859,758.410095 428.592560,750.885193 437.704742,748.191345 
	C447.238342,745.372925 456.773468,746.039917 466.140106,749.375549 
	C467.854431,749.986084 469.228333,750.748657 469.133972,752.795898 
	C468.952423,756.732910 469.748627,760.731873 468.449707,765.170776 
	C462.908325,763.635864 457.703339,761.398438 452.091309,760.869812 
	C450.596893,760.729065 449.169342,760.441895 447.652710,760.806458 
	C443.762146,761.741577 439.971985,763.043457 439.499939,767.655701 
	C439.031525,772.232361 442.729492,773.960327 446.174561,775.284241 
	C451.915436,777.490540 457.960083,778.907104 463.694977,782.149414 
z"/>
<path fill="#000000" opacity="1.000000" stroke="none" 
	d="
M367.088470,776.788086 
	C369.963867,777.806702 372.487885,778.660767 374.949951,779.666382 
	C385.712738,784.062500 390.419342,791.466858 389.259521,802.078430 
	C388.176025,811.991455 380.953064,819.372070 370.317505,821.143860 
	C361.114716,822.677002 352.151428,821.700195 343.373474,818.392029 
	C339.883301,817.076599 338.330048,815.117920 338.648529,811.355774 
	C338.910004,808.266602 338.701843,805.137695 338.701843,801.311646 
	C345.591125,803.739441 351.582550,806.130615 357.935333,807.273987 
	C361.843445,807.977417 365.578125,807.750427 368.991791,805.584045 
	C374.067017,802.363220 374.115204,796.409546 368.846161,793.513733 
	C365.672241,791.769287 362.055969,790.825256 358.628937,789.547180 
	C355.982727,788.560181 353.228546,787.810486 350.684418,786.611450 
	C342.778107,782.885010 339.137268,776.687866 339.448242,767.809631 
	C339.762512,758.837402 343.688721,752.458069 351.891449,749.093079 
	C362.098175,744.906006 372.397736,745.932556 382.598541,749.489563 
	C384.409241,750.120911 385.361847,751.224487 385.298248,753.163513 
	C385.173706,756.958130 385.783112,760.789856 384.734863,765.082703 
	C379.244324,764.393616 374.492920,760.936829 368.947205,761.093567 
	C368.289459,761.112183 367.628540,760.905762 366.965179,760.858459 
	C361.228882,760.449036 356.270660,762.999390 355.828552,767.083984 
	C355.252472,772.406372 359.575409,773.919556 363.393005,775.605469 
	C364.451874,776.072937 365.600922,776.336304 367.088470,776.788086 
z"/>
<path fill="#000000" opacity="1.000000" stroke="none" 
	d="
M762.705688,767.176880 
	C764.842590,753.986023 773.113220,746.896057 785.977051,746.637146 
	C792.164062,746.512634 798.247498,746.813354 804.212708,748.735657 
	C807.167114,749.687683 808.638123,751.174316 808.400269,754.453369 
	C808.153748,757.851807 808.345337,761.282043 808.345337,765.372986 
	C802.286682,763.579102 797.430969,761.268799 792.089294,760.944275 
	C791.266663,760.894287 790.460327,760.535767 789.639404,760.504333 
	C784.546204,760.309204 779.942383,763.063599 779.440125,766.756836 
	C778.737366,771.924316 782.603455,773.716064 786.323364,775.268188 
	C791.074402,777.250671 795.991821,778.830078 800.795837,780.690857 
	C809.332092,783.997375 813.017944,790.688293 813.038879,799.431213 
	C813.062378,809.207825 808.252502,816.217407 799.367615,819.477661 
	C787.820984,823.714417 776.488770,822.277466 765.406494,817.494629 
	C763.744629,816.777588 762.664124,815.716797 762.685425,813.746582 
	C762.727844,809.824890 762.697998,805.902405 762.697998,801.369324 
	C769.371094,803.625977 774.979919,806.192322 781.070557,807.075378 
	C782.544189,807.289062 784.029785,807.599304 785.506348,807.580933 
	C791.146240,807.510803 795.826111,804.672546 796.352844,800.592102 
	C797.078491,794.971069 792.652588,793.291992 788.594788,791.708191 
	C784.418945,790.078430 780.047180,788.946472 775.885376,787.285461 
	C767.066650,783.765808 762.435608,777.296753 762.705688,767.176880 
z"/>
<path fill="#000000" opacity="1.000000" stroke="none" 
	d="
M316.237305,819.550476 
	C305.673889,823.224731 295.624695,822.340759 285.593323,818.874146 
	C281.446869,817.441162 279.178741,815.113647 279.716675,810.420471 
	C280.032471,807.664917 279.774261,804.843567 279.774261,801.225281 
	C286.212494,803.363464 291.917389,806.024048 298.087921,807.163696 
	C301.852020,807.858948 305.325867,807.591431 308.795349,806.067688 
	C311.470703,804.892700 313.128662,802.916077 313.461334,800.064941 
	C313.819550,796.994873 311.838013,795.070618 309.487854,793.665466 
	C307.795898,792.653809 305.888702,791.962097 304.016357,791.300781 
	C300.724121,790.138062 297.340088,789.227600 294.074127,787.999695 
	C284.140533,784.264832 279.346985,777.373169 279.695648,767.543640 
	C280.031830,758.065735 285.757446,750.617310 295.394409,747.963379 
	C304.628113,745.420593 313.836517,746.172729 322.848969,749.415466 
	C324.168243,749.890076 325.436035,750.356689 325.453308,751.996399 
	C325.498047,756.248047 325.468323,760.500488 325.468323,765.440308 
	C319.455963,763.330994 314.172577,761.492310 308.585297,760.725647 
	C305.604614,760.316650 302.885101,760.848328 300.371124,762.077209 
	C295.232788,764.588928 294.994629,770.395325 299.772888,773.599182 
	C302.997772,775.761597 306.761414,776.598022 310.372040,777.852661 
	C317.285065,780.254883 324.406403,782.498413 327.824615,789.989136 
	C333.165070,801.692017 328.384064,814.230469 316.237305,819.550476 
z"/>
<path fill="#000000" opacity="1.000000" stroke="none" 
	d="
M647.815063,590.151733 
	C642.734436,583.537048 637.980835,577.115601 632.971924,570.899902 
	C630.596191,567.951782 630.496704,565.623962 632.941345,562.598083 
	C639.735107,554.189270 646.340759,545.624451 652.856506,536.997253 
	C655.002625,534.155518 656.634827,533.875244 659.097961,536.616577 
	C667.673035,546.160339 675.737671,556.085999 682.883911,566.757874 
	C684.855652,569.702454 685.099243,572.203552 683.121033,575.388733 
	C676.375977,586.249329 668.860474,596.523499 660.690857,607.138367 
	C656.202698,601.211731 652.120056,595.820496 647.815063,590.151733 
z"/>
<path fill="#000000" opacity="1.000000" stroke="none" 
	d="
M394.008545,564.281311 
	C395.351440,566.080444 395.537659,567.553162 394.307007,569.128662 
	C384.700073,581.427673 375.113129,593.742371 365.509064,606.043640 
	C365.430603,606.144165 365.201202,606.126892 364.305450,606.339600 
	C358.042664,598.435364 352.589264,589.548645 346.318695,581.287170 
	C340.288605,573.342529 341.480347,567.080811 347.416626,559.825195 
	C354.450409,551.228333 360.673920,541.973389 369.722900,534.049500 
	C377.865173,544.175232 385.826904,554.076355 394.008545,564.281311 
z"/>
<path fill="#000000" opacity="1.000000" stroke="none" 
	d="
M680.541748,641.402466 
	C675.775391,632.958435 671.180908,624.841858 666.578613,616.729675 
	C665.690918,615.165039 664.356140,613.743347 665.865723,611.767822 
	C674.136047,600.945007 681.221130,589.317810 688.678528,577.302612 
	C698.340210,592.209106 707.096985,606.363159 704.853088,625.089905 
	C703.228760,638.646057 701.826721,652.143127 698.116943,665.300598 
	C697.509949,667.453613 697.317261,669.894165 694.859192,672.035156 
	C690.255127,661.680359 686.149902,651.377563 680.541748,641.402466 
z"/>
<path fill="#000000" opacity="1.000000" stroke="none" 
	d="
M345.095276,589.946594 
	C349.464874,597.068665 353.978729,603.657959 358.901337,609.954102 
	C360.493927,611.991028 361.096649,613.676636 359.550568,616.183594 
	C348.972809,633.335083 339.345612,650.997437 331.522858,669.600769 
	C331.339417,670.037048 331.009277,670.411682 330.705414,670.880005 
	C328.538208,670.060974 328.578003,667.949646 328.106537,666.379517 
	C322.270874,646.944214 319.534943,627.126282 321.758850,606.858093 
	C322.522675,599.896729 327.205353,594.439819 330.389862,588.466675 
	C332.289093,584.904236 333.780182,580.915283 337.370056,577.687561 
	C340.022797,581.889099 342.467926,585.761841 345.095276,589.946594 
z"/>
<path fill="#000000" opacity="1.000000" stroke="none" 
	d="
M433.869019,525.375610 
	C434.267273,527.469849 433.045563,528.512329 432.020569,529.544373 
	C421.925690,539.708984 411.540527,549.589294 402.002869,560.299011 
	C401.698792,560.640503 401.148071,560.762329 400.368317,561.163513 
	C394.116394,555.250427 389.145813,548.142944 383.445282,541.690735 
	C382.565979,540.695496 381.853821,539.553528 381.050568,538.489868 
	C373.906952,529.030823 373.941589,529.068909 382.741974,520.698303 
	C390.006592,513.788513 398.092834,507.906189 405.990265,501.782501 
	C407.742035,500.424164 409.328400,499.695465 411.199707,501.667267 
	C418.647400,509.515137 426.953918,516.534729 433.869019,525.375610 
z"/>
<path fill="#000000" opacity="1.000000" stroke="none" 
	d="
M647.514526,525.424255 
	C649.948547,527.352905 651.286804,529.112976 649.170044,531.906677 
	C641.645081,541.838135 634.170898,551.805664 625.800598,560.876160 
	C623.786255,561.000671 622.971741,559.581360 622.049683,558.484436 
	C613.360901,548.148926 603.690796,538.760010 593.924683,529.478088 
	C591.318665,527.001221 590.998962,525.334534 593.694702,522.614441 
	C600.247803,516.002014 606.593445,509.173096 612.789917,502.223938 
	C615.109558,499.622589 616.834106,499.662292 619.458923,501.691437 
	C629.071655,509.122620 638.560486,516.685791 647.514526,525.424255 
z"/>
<path fill="#000000" opacity="1.000000" stroke="none" 
	d="
M472.238190,553.896484 
	C463.204926,544.616821 454.433167,535.590637 445.540619,526.440125 
	C449.302551,521.382507 454.005280,517.918823 458.324951,514.114197 
	C464.059235,509.063599 470.095886,504.357605 475.960205,499.452820 
	C478.602814,497.242554 480.821167,497.399414 483.339783,499.857300 
	C490.475830,506.821014 497.678101,513.725098 505.070343,520.413757 
	C507.794556,522.878662 507.471313,524.369934 505.035370,526.780884 
	C495.940521,535.782349 486.976135,544.919556 478.133698,554.169128 
	C475.940033,556.463806 474.373047,556.462463 472.238190,553.896484 
z"/>
<path fill="#000000" opacity="1.000000" stroke="none" 
	d="
M573.868042,532.865723 
	C566.957642,540.092773 560.224609,547.002686 553.675903,554.083130 
	C551.400574,556.543152 549.771545,556.342834 547.563538,554.046021 
	C538.686035,544.811890 529.726624,535.655457 520.711182,526.555664 
	C518.614807,524.439697 518.593628,522.838928 520.733093,520.724365 
	C528.068359,513.474915 535.309326,506.132660 543.097412,499.356476 
	C544.614319,498.036713 546.080872,497.202515 547.947021,498.652740 
	C558.951782,507.204559 569.869568,515.857849 580.326599,525.923889 
	C578.103088,528.320312 576.110413,530.467896 573.868042,532.865723 
z"/>
<path fill="#000000" opacity="1.000000" stroke="none" 
	d="
M404.925140,667.060303 
	C413.229645,676.160095 421.192535,685.095032 429.430878,693.768311 
	C432.067383,696.544006 432.768982,698.614380 430.093842,701.786194 
	C426.673065,705.841980 423.570190,710.190552 420.611023,714.601257 
	C418.966736,717.052185 417.132233,717.826538 414.326599,717.145142 
	C402.709076,714.323730 391.149323,711.334534 379.852692,707.359558 
	C376.006165,706.006104 374.928955,704.385254 376.990387,700.459778 
	C383.022003,688.974121 389.254974,677.619873 396.456696,666.819519 
	C397.363190,665.460083 398.438019,664.212830 399.365692,663.003723 
	C402.185455,663.215942 403.112427,665.446838 404.925140,667.060303 
z"/>
<path fill="#000000" opacity="1.000000" stroke="none" 
	d="
M608.282837,717.272217 
	C605.905762,717.169800 605.071289,715.649719 604.148254,714.274475 
	C602.384216,711.646179 600.671448,708.983398 598.905701,706.356262 
	C592.934021,697.471619 592.919617,697.466858 599.943298,689.737915 
	C606.775146,682.220093 613.605591,674.700684 620.490845,667.231934 
	C621.941162,665.658691 623.627258,664.302795 625.012390,663.024292 
	C627.228333,663.187195 627.775940,664.768005 628.538147,665.962219 
	C635.530151,676.917725 642.164185,688.088196 648.314392,699.538879 
	C651.119751,704.761902 650.919434,705.134338 645.228455,707.321045 
	C633.385498,711.871521 621.101501,714.804382 608.282837,717.272217 
z"/>
<path fill="#000000" opacity="1.000000" stroke="none" 
	d="
M566.671204,813.584473 
	C566.669861,793.163818 566.784851,773.192688 566.579163,753.224731 
	C566.533752,748.818665 567.906860,747.496948 572.275696,747.561218 
	C583.258179,747.722778 583.266968,747.526611 583.269104,758.643311 
	C583.271912,772.955139 583.380310,787.268555 583.185303,801.577759 
	C583.131348,805.540161 584.462280,806.864990 588.366455,806.711975 
	C595.013672,806.451660 601.681641,806.743164 608.331726,806.524963 
	C611.450684,806.422546 612.401794,807.597412 612.367065,810.565125 
	C612.230591,822.241943 613.165955,820.252930 603.007446,820.348877 
	C591.073364,820.461609 579.137512,820.375305 567.387146,820.375305 
	C566.186768,818.004944 566.872375,815.979309 566.671204,813.584473 
z"/>
<path fill="#000000" opacity="1.000000" stroke="none" 
	d="
M458.579498,506.600311 
	C453.334167,510.989838 448.263092,515.041931 443.418945,519.349182 
	C441.183044,521.337280 439.587036,521.274414 437.540833,519.185547 
	C430.789551,512.293701 423.953186,505.484436 417.097931,498.695557 
	C414.883789,496.502869 415.207550,494.691467 417.558105,492.937164 
	C426.762329,486.067719 436.139069,479.459351 446.161316,473.810730 
	C448.078247,472.730347 449.767609,472.477539 451.629120,474.053101 
	C458.103851,479.533234 464.617889,484.968903 471.201233,490.317719 
	C473.801910,492.430725 473.869629,494.115295 471.171600,496.218933 
	C466.976227,499.490082 462.946472,502.973694 458.579498,506.600311 
z"/>
<path fill="#000000" opacity="1.000000" stroke="none" 
	d="
M573.895996,473.072327 
	C575.979126,472.147308 577.440063,473.075867 578.887085,473.868317 
	C588.680908,479.232178 597.829773,485.573883 606.823975,492.168823 
	C609.943115,494.455933 609.795654,496.566528 607.309021,499.081421 
	C600.760132,505.704803 594.228271,512.345093 587.699951,518.988770 
	C586.444031,520.266846 585.150940,521.258179 583.411926,519.809875 
	C572.851257,511.014587 562.429810,502.052124 550.688843,493.505829 
	C558.738098,486.386017 566.167786,479.814209 573.895996,473.072327 
z"/>
<path fill="#000000" opacity="1.000000" stroke="none" 
	d="
M502.818726,479.771667 
	C512.474243,472.611328 512.503967,472.569702 521.762451,479.182343 
	C527.039429,482.951324 532.126587,486.988495 537.442566,490.699585 
	C540.481140,492.820862 540.415161,494.486023 537.716980,496.875122 
	C530.245056,503.490997 522.912903,510.265137 515.557007,517.011108 
	C514.384583,518.086365 513.153992,519.231995 511.679321,517.942688 
	C502.703583,510.095337 493.802124,502.163025 484.493622,493.920563 
	C490.210632,488.295502 496.604126,484.431610 502.818726,479.771667 
z"/>
<path fill="#000000" opacity="1.000000" stroke="none" 
	d="
M463.849731,477.160706 
	C460.709686,474.735565 457.524658,472.874298 455.307343,469.163513 
	C464.480316,463.552216 473.475739,458.045258 483.470947,454.402618 
	C484.267029,454.112518 485.565552,454.350922 486.289093,454.844421 
	C493.125214,459.507141 500.327972,463.667023 506.496948,469.006226 
	C506.471741,471.129425 504.998016,471.710266 503.807495,472.556061 
	C497.172272,477.269958 490.441833,481.860138 483.970245,486.789734 
	C480.765076,489.231201 478.329254,489.359833 475.303192,486.536591 
	C471.789764,483.258606 467.870087,480.416046 463.849731,477.160706 
z"/>
<path fill="#000000" opacity="1.000000" stroke="none" 
	d="
M663.884399,505.403809 
	C665.195679,506.939453 665.667847,508.351654 664.694336,509.800079 
	C661.567932,514.451904 658.916992,519.456360 655.117737,523.349182 
	C653.197021,523.560059 652.427673,522.282715 651.500000,521.421814 
	C642.590698,513.154358 633.276306,505.362518 623.618164,497.998444 
	C620.627014,495.717834 620.334534,493.972137 623.062744,491.292480 
	C626.377441,488.036621 629.468689,484.536469 632.471497,480.985474 
	C634.588623,478.481873 636.402405,478.744202 638.798096,480.626465 
	C648.006897,487.861816 655.870972,496.436859 663.884399,505.403809 
z"/>
<path fill="#000000" opacity="1.000000" stroke="none" 
	d="
M368.197906,498.204773 
	C373.815186,492.045563 379.687744,486.672852 385.700043,481.429321 
	C388.253784,479.202057 390.115814,479.285522 392.399780,481.795044 
	C396.389984,486.179199 400.622406,490.342896 405.151337,495.009094 
	C393.611664,505.272583 381.284637,513.634277 370.769531,524.504089 
	C366.245544,520.005310 363.502960,515.065369 360.409119,510.390533 
	C359.222992,508.598236 360.292511,507.158630 361.339386,505.901947 
	C363.462494,503.353241 365.738678,500.932007 368.197906,498.204773 
z"/>
<path fill="#000000" opacity="1.000000" stroke="none" 
	d="
M534.133728,458.071320 
	C538.434265,453.809784 542.485779,453.986267 547.367249,456.765869 
	C554.531067,460.845215 562.038025,464.320862 569.497253,469.222595 
	C563.679138,475.150970 557.461304,479.776245 551.545959,484.731262 
	C545.733154,489.600433 545.697021,489.584137 539.668396,485.217896 
	C532.842346,480.274078 526.037415,475.300995 518.463196,469.787262 
	C523.917480,465.704132 528.877869,461.990753 534.133728,458.071320 
z"/>
<path fill="#000000" opacity="1.000000" stroke="none" 
	d="
M586.028687,471.990234 
	C584.373657,470.856903 582.778259,470.201813 581.594360,467.946259 
	C585.914551,463.194702 591.022278,459.113220 596.559692,455.562836 
	C597.908752,454.697906 599.481567,455.606720 600.838806,456.225830 
	C609.793762,460.310547 618.257996,465.248718 626.398743,470.778015 
	C629.663269,472.995300 629.916443,475.307465 627.299988,478.112000 
	C627.073120,478.355164 626.876343,478.627411 626.640625,478.860992 
	C622.866394,482.601715 619.669250,488.110992 615.152161,489.591736 
	C610.357727,491.163300 606.735229,484.810272 602.344910,482.329712 
	C596.852417,479.226440 591.665833,475.581787 586.028687,471.990234 
z"/>
<path fill="#000000" opacity="1.000000" stroke="none" 
	d="
M414.673035,461.590027 
	C423.043213,455.016571 430.328613,456.170990 437.153992,463.474640 
	C438.919647,465.364105 441.635254,466.313110 443.051880,469.399780 
	C437.994537,472.773438 432.920990,476.134155 427.872650,479.532288 
	C423.045959,482.781250 418.212341,486.022095 413.451996,489.366364 
	C411.865112,490.481171 410.346191,491.678406 408.633545,489.935944 
	C403.895142,485.115021 399.254242,480.198242 394.324249,475.058105 
	C400.827026,469.422119 407.627502,465.652588 414.673035,461.590027 
z"/>
<path fill="#000000" opacity="1.000000" stroke="none" 
	d="
M691.000000,551.260254 
	C693.719116,556.510254 690.792664,560.116455 688.639160,563.785522 
	C687.046875,564.017578 686.567017,563.027100 686.075989,562.201843 
	C679.814331,551.677795 672.097290,542.292664 663.303833,533.836487 
	C659.682495,530.354065 658.662415,527.302795 662.302246,523.305969 
	C664.955750,520.392273 666.375366,516.466919 670.069641,513.530823 
	C679.113403,524.973022 685.382080,537.701843 691.000000,551.260254 
z"/>
<path fill="#000000" opacity="1.000000" stroke="none" 
	d="
M339.078674,562.925476 
	C335.978180,562.616821 332.668518,558.036133 333.756653,554.825989 
	C338.675079,540.316162 346.032196,527.042786 355.123566,513.823303 
	C359.654083,518.251831 362.438171,523.118958 365.137177,527.942078 
	C366.281494,529.987000 364.034302,531.550842 362.702240,532.965027 
	C354.028259,542.173645 345.764526,551.700623 339.078674,562.925476 
z"/>
<path fill="#000000" opacity="1.000000" stroke="none" 
	d="
M529.764893,454.767395 
	C525.283447,457.961090 521.023193,460.846039 516.921509,463.941254 
	C514.466919,465.793488 512.375488,466.088379 509.812225,464.064514 
	C504.166260,459.606537 497.649414,456.255585 491.940735,450.790192 
	C498.436005,447.121857 504.439270,444.442017 510.574219,442.061432 
	C511.589294,441.667603 512.969238,441.584351 513.987000,441.929108 
	C520.847900,444.252899 527.462280,447.159821 533.888916,450.506287 
	C533.320862,452.854797 531.378662,453.397461 529.764893,454.767395 
z"/>
<path fill="#000000" opacity="1.000000" stroke="none" 
	d="
M438.089905,456.940887 
	C436.527039,455.739777 434.861816,455.116425 434.365784,452.752441 
	C438.912354,449.880432 444.365356,448.956940 449.378998,447.036377 
	C452.927704,445.677002 456.898102,445.343658 460.340485,443.796387 
	C468.342529,440.199524 472.868866,445.537323 478.739319,450.201782 
	C474.747650,452.341492 471.330841,454.183441 467.904358,456.007263 
	C463.221283,458.499939 458.420807,460.796234 453.884003,463.530670 
	C451.072418,465.225250 448.856567,465.455688 446.288269,463.200653 
	C443.799255,461.015137 441.026978,459.152222 438.089905,456.940887 
z"/>
<path fill="#000000" opacity="1.000000" stroke="none" 
	d="
M573.517578,464.258453 
	C564.845825,459.709900 556.511536,455.253693 548.173523,450.795532 
	C551.600830,444.855133 557.949097,441.898193 563.922363,443.389893 
	C572.744812,445.593201 581.453125,448.150391 591.055237,451.943634 
	C585.017090,456.939148 580.745850,462.335144 573.517578,464.258453 
z"/>
<path fill="#000000" opacity="1.000000" stroke="none" 
	d="
M484.519714,439.100189 
	C491.267029,438.718018 497.562805,437.113068 503.922333,437.872589 
	C504.036072,438.305023 504.149841,438.737427 504.263580,439.169830 
	C498.092041,441.746796 492.075653,444.866455 485.689362,446.692200 
	C482.003876,447.745819 480.245605,443.271179 477.305176,441.522217 
	C479.381927,438.684021 482.112091,440.224518 484.519714,439.100189 
z"/>
<path fill="#000000" opacity="1.000000" stroke="none" 
	d="
M549.416382,441.507568 
	C544.436951,446.537201 539.194336,447.550476 533.184265,443.837280 
	C529.627747,441.639984 525.108826,441.368103 520.840942,438.286377 
	C528.684204,436.680206 535.449646,438.436035 542.175903,439.276733 
	C544.574036,439.576447 547.636597,438.447632 549.416382,441.507568 
z"/>
<path fill="#000000" opacity="1.000000" stroke="none" 
	d="
M325.084656,583.176819 
	C326.681000,577.117249 328.312195,571.387756 330.043304,565.307373 
	C333.005493,566.742004 334.256409,569.442200 333.357056,571.437866 
	C331.363190,575.862122 330.083832,581.025757 325.084656,583.176819 
z"/>
<path fill="#000000" opacity="1.000000" stroke="none" 
	d="
M698.690552,582.622070 
	C696.840820,579.547852 695.284546,576.642090 693.652466,573.779541 
	C691.906433,570.717224 692.744324,568.229797 695.631531,565.201172 
	C697.275513,571.149780 698.764954,576.426392 700.156555,581.728699 
	C700.316345,582.337585 699.828857,582.974243 698.690552,582.622070 
z"/>
</svg>